<mxfile host="app.diagrams.net" modified="2024-05-28T03:23:18.438Z" agent="Mozilla/5.0 (Windows NT 10.0; Win64; x64) AppleWebKit/537.36 (KHTML, like Gecko) Chrome/125.0.0.0 Safari/537.36" version="24.4.9" etag="GU0P19YQ_1tfJY3cFNLp" type="github">
  <diagram name="第 1 页" id="8uKAgce_XbHt97ITJaZ3">
    <mxGraphModel>
      <root>
        <mxCell id="0" />
        <mxCell id="1" parent="0" />
      </root>
    </mxGraphModel>
  </diagram>
</mxfile>
